<?xml version="1.0" encoding="UTF-8"?>
<svg version="1.1" xmlns="http://www.w3.org/2000/svg" width="512" height="512">
<path d="M0 0 C0.70543945 0.20367188 1.41087891 0.40734375 2.13769531 0.6171875 C33.81148598 9.93385402 60.55569414 32.51424198 76.3125 61.375 C80.43416405 69.28830531 83.39617715 77.48362913 86 86 C86.37447266 87.21631104 86.74894531 88.43262207 87.13476562 89.68579102 C91.55363761 106.08602263 90.45550451 123.31209788 90.2746582 140.14465332 C90.2331753 144.42252632 90.21535192 148.70049796 90.1953125 152.97851562 C90.15286801 161.31927621 90.08492325 169.65956403 90 178 C90.88869781 177.99111755 91.77739563 177.98223511 92.69302368 177.9730835 C101.07930352 177.89284483 109.46545393 177.83198847 117.8520298 177.79275131 C122.16340166 177.77190066 126.47445562 177.74362958 130.78564453 177.69824219 C134.9483387 177.65469373 139.11072761 177.63084392 143.27363205 177.62049103 C144.8596413 177.61311574 146.44563436 177.5987133 148.03151321 177.57707977 C150.25786329 177.5479247 152.48296155 177.54404883 154.70947266 177.54589844 C156.60809555 177.53257477 156.60809555 177.53257477 158.54507446 177.51898193 C162.71580332 178.09965897 164.78332776 179.31051029 168 182 C170.78908158 185.93007437 171.99500402 189.98860821 173.12487793 194.61062622 C173.31725147 195.36920044 173.50962501 196.12777466 173.70782804 196.90933597 C174.34886763 199.44562949 174.9781233 201.9846958 175.60742188 204.52392578 C176.06536261 206.3462003 176.52400362 208.16829896 176.98329163 209.99023438 C178.2286042 214.93955777 179.46347207 219.8914323 180.69605446 224.8439393 C181.99095983 230.04130954 183.29391616 235.23666197 184.59558105 240.43234253 C186.78368314 249.17200848 188.9648297 257.91338898 191.14208984 266.65576172 C193.64914074 276.72190489 196.16794423 286.78505132 198.69301748 296.84668744 C200.86651918 305.50876108 203.03349818 314.1724479 205.19519663 322.8374747 C206.48350454 328.00154818 207.77395057 333.16505977 209.07029724 338.32712173 C210.29260201 343.19588148 211.50661781 348.06663938 212.71468925 352.93894958 C213.15565416 354.71194591 213.59931868 356.48427373 214.04611397 358.25580978 C216.2956214 367.18237824 218.30685029 376.08476536 219.76086426 385.17868042 C219.88272992 385.9394533 220.00459558 386.70022618 220.13015413 387.48405278 C221.2898116 395.18072146 221.51020609 402.85074914 221.4375 410.625 C221.43243942 411.69269119 221.43243942 411.69269119 221.42727661 412.7819519 C221.35301008 423.644153 220.74033162 433.69748894 217 444 C216.75862305 444.66692871 216.51724609 445.33385742 216.26855469 446.02099609 C207.27526153 470.16713979 189.45763256 489.40383704 166.14453125 500.2421875 C155.91803796 504.73376652 145.0734807 508.11512262 133.84311962 508.13422108 C132.62246876 508.13867892 131.4018179 508.14313676 130.14417762 508.14772969 C128.79795658 508.14764041 127.45173554 508.14745059 126.10551453 508.14717102 C124.66877084 508.15047269 123.23202807 508.1541989 121.79528648 508.1583125 C117.85111076 508.16830646 113.90695025 508.1720451 109.96276367 508.17470181 C105.70687395 508.17861271 101.45099619 508.18819061 97.19511414 508.19691467 C86.91787478 508.21665875 76.64063446 508.22674349 66.36338088 508.23564246 C61.51858295 508.24002945 56.6737861 508.24539526 51.82898903 508.25063133 C35.71433457 508.2676429 19.59968079 508.2821352 3.48501873 508.28938007 C-0.69496474 508.29128984 -4.8749482 508.29321019 -9.05493164 508.29516602 C-10.09379452 508.29564976 -11.13265741 508.2961335 -12.20300099 508.2966319 C-29.0170709 508.3049252 -45.83106951 508.33025062 -62.64510832 508.36274669 C-79.9244014 508.39586844 -97.20365831 508.41383352 -114.48298329 508.41702431 C-124.17783638 508.41918487 -133.87258555 508.42786655 -143.56740761 508.45348549 C-151.82730054 508.47526262 -160.08706431 508.48320864 -168.3469827 508.47351871 C-172.55571026 508.468994 -176.7641717 508.47075256 -180.97286224 508.49028015 C-213.38455943 508.63244209 -213.38455943 508.63244209 -227 504 C-228.26068283 503.58751998 -228.26068283 503.58751998 -229.54683399 503.16670704 C-252.66177844 494.8891599 -271.57787381 477.06195982 -282.29785156 455.17578125 C-288.6058376 441.60741418 -291.20006713 428.42244486 -291.24023438 413.49194336 C-291.24977217 411.36334527 -291.28075927 409.23578691 -291.3125 407.10742188 C-291.36886686 399.68353642 -290.95512442 392.4861944 -289.76646423 385.15351868 C-289.63463554 384.33387801 -289.50280685 383.51423735 -289.36698335 382.66975909 C-287.84182456 373.55876986 -285.66039373 364.63407362 -283.40844727 355.68041992 C-282.95078424 353.83532345 -282.4938044 351.99005741 -282.03744507 350.14463806 C-280.81165708 345.19728761 -279.57561906 340.25255604 -278.33687711 335.3084352 C-277.29990684 331.16582594 -276.26793624 327.02197754 -275.23586696 322.87814504 C-272.802391 313.10819631 -270.36035115 303.34041643 -267.9128418 293.57397461 C-265.39163389 283.51279704 -262.88519785 273.44801996 -260.38583142 263.38139647 C-258.23202244 254.70879532 -256.069116 246.03849816 -253.89889187 237.36999017 C-252.60583931 232.20476826 -251.31624087 227.038747 -250.03543282 221.87047386 C-248.83358412 217.02249215 -247.62039204 212.17749007 -246.39841843 207.33454323 C-245.95253366 205.55942376 -245.51064798 203.78329419 -245.07309151 202.00610352 C-244.47463356 199.57814739 -243.86173906 197.15428116 -243.24513245 194.73088074 C-243.0759556 194.02981978 -242.90677876 193.32875883 -242.73247534 192.6064536 C-241.31150273 187.12526992 -239.15253788 182.73378151 -234.69856262 179.14628601 C-231.25094353 177.68181841 -228.56803585 177.63974762 -224.82299805 177.65942383 C-224.12001083 177.65898575 -223.41702362 177.65854767 -222.69273376 177.65809631 C-220.38210736 177.66017699 -218.07221752 177.68347285 -215.76171875 177.70703125 C-214.15461117 177.71262979 -212.54749845 177.71689867 -210.94038391 177.71989441 C-206.72018176 177.7313229 -202.50029166 177.76077266 -198.2802124 177.79400635 C-193.97005433 177.82475043 -189.6598456 177.838409 -185.34960938 177.85351562 C-176.89959673 177.88564449 -168.44983724 177.93681642 -160 178 C-160.00999275 176.68147034 -160.00999275 176.68147034 -160.02018738 175.33630371 C-160.08072819 166.98254761 -160.12619018 158.628867 -160.15543652 150.27494049 C-160.17097864 145.98186249 -160.19200261 141.68896834 -160.22631836 137.39599609 C-160.25932674 133.23975361 -160.27693867 129.08368601 -160.28463173 124.92732239 C-160.29010192 123.35518141 -160.30077928 121.78304812 -160.31719017 120.21098328 C-160.66304794 85.65112874 -146.62503394 55.30715711 -122.875 30.5 C-107.86194793 15.84241016 -90.03565551 5.95207099 -70 0 C-69.31083496 -0.21172852 -68.62166992 -0.42345703 -67.91162109 -0.64160156 C-46.80322745 -6.87289812 -20.98928907 -6.4004985 0 0 Z M-95 48 C-95.81855469 48.68835938 -96.63710937 49.37671875 -97.48046875 50.0859375 C-119.18051433 68.79853354 -127.84717999 93.01333983 -130 121 C-130 139.81 -130 158.62 -130 178 C-67.3 178 -4.6 178 60 178 C63.08958639 115.77548862 63.08958639 115.77548862 38 61 C37.31164062 60.18144531 36.62328125 59.36289062 35.9140625 58.51953125 C23.04314057 43.59377793 6.84064532 34.25940276 -12 29 C-12.79535156 28.76667969 -13.59070313 28.53335938 -14.41015625 28.29296875 C-41.53659909 21.24516397 -74.10839582 29.50837295 -95 48 Z M-204 208 C-202.46054835 215.1302818 -202.46054835 215.1302818 -200.43115234 222.01196289 C-200.13652603 222.89019714 -199.84189972 223.7684314 -199.53834534 224.67327881 C-199.06690346 226.05897064 -199.06690346 226.05897064 -198.5859375 227.47265625 C-197.90334 229.5112361 -197.22148391 231.55006431 -196.5402832 233.58911133 C-196.18616364 234.64595123 -195.83204407 235.70279114 -195.4671936 236.79165649 C-182.98117361 274.18412728 -173.75596449 311.65009867 -170 351 C-169.90428711 351.99572021 -169.80857422 352.99144043 -169.70996094 354.01733398 C-168.75362941 365.43247043 -168.75643837 376.86420874 -168.75 388.3125 C-168.74932526 389.39480896 -168.74865051 390.47711792 -168.74795532 391.59222412 C-168.77704155 421.10740601 -172.24563765 448.52295345 -177 478 C-83.28 478 10.44 478 107 478 C105.35 467.77 103.7 457.54 102 447 C92.61928886 367.42569167 105.88246169 293.02940977 131.76538086 217.86376953 C132.06452393 216.9870459 132.36366699 216.11032227 132.671875 215.20703125 C132.9306543 214.4591333 133.18943359 213.71123535 133.45605469 212.94067383 C134.13494301 210.85446437 134.13494301 210.85446437 134 208 C96.38 208 58.76 208 20 208 C19.67 224.83 19.34 241.66 19 259 C15.28526445 265.19122592 15.28526445 265.19122592 11 267 C8.01741401 267.41608826 5.07411065 267.41007246 2.06640625 267.38818359 C0.73136551 267.39606903 0.73136551 267.39606903 -0.63064575 267.40411377 C-3.56644347 267.41729466 -6.50169697 267.40858239 -9.4375 267.3984375 C-11.48103947 267.40045878 -13.52457823 267.40337067 -15.56811523 267.40713501 C-19.84853999 267.41155578 -24.12877679 267.40513517 -28.40917969 267.39111328 C-33.89376283 267.37402165 -39.37790554 267.38386414 -44.86247253 267.40183067 C-49.08153599 267.41267512 -53.30049516 267.40921911 -57.51956177 267.4014473 C-59.54175875 267.39944712 -61.56396522 267.40189814 -63.58615112 267.40888596 C-66.4131577 267.41651119 -69.23945262 267.40488104 -72.06640625 267.38818359 C-72.90084259 267.39425629 -73.73527893 267.40032898 -74.59500122 267.40658569 C-79.19488267 267.35629479 -82.33520921 267.07799773 -86 264 C-95.6283894 247.95268434 -89.63312493 226.71062866 -90 208 C-127.62 208 -165.24 208 -204 208 Z M-60 208 C-60 217.9 -60 227.8 -60 238 C-43.5 238 -27 238 -10 238 C-10 228.1 -10 218.2 -10 208 C-26.5 208 -43 208 -60 208 Z M-224 250 C-226.38299008 256.85020796 -228.2929 263.73228284 -230.046875 270.76757812 C-230.33510132 271.91201385 -230.62332764 273.05644958 -230.92028809 274.23556519 C-231.86719204 277.99988354 -232.80886642 281.76548514 -233.75 285.53125 C-234.2434746 287.50068703 -234.73734979 289.47002332 -235.23124313 291.43935537 C-236.78377333 297.63029466 -238.33248423 303.82218084 -239.87890625 310.01464844 C-241.4631098 316.35808134 -243.05421964 322.69975328 -244.6487236 329.04060411 C-246.0263521 334.52019169 -247.39931427 340.00093492 -248.76875687 345.48257399 C-249.58271534 348.74045387 -250.39889238 351.99773133 -251.21862793 355.25416565 C-258.19139491 382.31155959 -258.19139491 382.31155959 -260.5 410.0625 C-260.49500488 411.26696777 -260.49000977 412.47143555 -260.48486328 413.71240234 C-260.11560669 432.63107297 -253.1906123 446.55965149 -240 460 C-239.07767578 460.9590625 -239.07767578 460.9590625 -238.13671875 461.9375 C-229.70622253 470.02499958 -219.33015725 474.09640791 -208 476 C-204.40556397 459.41439754 -201.62851062 442.89650203 -200 426 C-199.90428711 425.05817871 -199.80857422 424.11635742 -199.70996094 423.14599609 C-198.74648661 412.49079879 -198.7564005 401.81524399 -198.75 391.125 C-198.74932526 390.10866486 -198.74865051 389.09232971 -198.74795532 388.04519653 C-198.79777224 340.57805039 -207.80421708 294.88958321 -223 250 C-223.33 250 -223.66 250 -224 250 Z M153 250 C141.75883526 283.67093031 133.3395124 317.56823565 130 353 C129.90428711 354.01457275 129.80857422 355.02914551 129.70996094 356.07446289 C128.80339959 367.01737327 128.75659914 377.96290866 128.75 388.9375 C128.74932526 389.95133759 128.74865051 390.96517517 128.74795532 392.00973511 C128.7766277 419.27609166 129.28394778 449.85184335 138 476 C155.24906226 474.05252523 167.41461614 463.80854808 178.375 451.1875 C187.45040556 439.33275148 190.3642243 425.66064688 190.4375 411.0625 C190.47037109 409.97259766 190.50324219 408.88269531 190.53710938 407.75976562 C190.58598809 399.85474469 189.48032263 392.49621408 187.90136719 384.77319336 C187.68108195 383.68638275 187.46079672 382.59957214 187.23383617 381.47982788 C184.52052173 368.34774395 181.27787114 355.34908338 178.01953125 342.34375 C177.52582812 340.36412434 177.03284062 338.38432137 176.53990954 336.40450335 C175.00368428 330.23480377 173.46149852 324.06661695 171.9152832 317.89941406 C170.32345501 311.54982118 168.7421781 305.19766315 167.1657303 298.8442359 C165.801695 293.34842959 164.43133795 287.85422684 163.05581397 282.36128473 C162.23839485 279.09678686 161.42338925 275.83173504 160.61451149 272.56510925 C159.71803681 268.95219913 158.8112429 265.3420383 157.90161133 261.73242188 C157.63613495 260.65320465 157.37065857 259.57398743 157.09713745 258.46206665 C156.8491893 257.4871225 156.60124115 256.51217834 156.34577942 255.50769043 C156.02644046 254.23039692 156.02644046 254.23039692 155.70065022 252.9272995 C155.17837089 250.8025994 155.17837089 250.8025994 153 250 Z " fill="#000000" transform="translate(291,4)"/>
<path d="M0 0 C0.70240974 -0.00538554 1.40481947 -0.01077108 2.12851435 -0.01631981 C4.47611966 -0.03059796 6.82316099 -0.0234963 9.17079163 -0.01637268 C10.85635837 -0.02207634 12.54192124 -0.02904059 14.22747803 -0.03717041 C18.80187476 -0.05511747 23.37607983 -0.05393053 27.9505012 -0.04822803 C31.77015012 -0.0451384 35.5897621 -0.05122612 39.40940577 -0.05726677 C48.42071926 -0.07131548 57.43193796 -0.06974784 66.44325256 -0.05836487 C75.73813958 -0.04688311 85.03273808 -0.06095949 94.32758707 -0.08776134 C102.30990186 -0.10991625 110.29212608 -0.1165562 118.27446944 -0.11068493 C123.04107131 -0.10731367 127.80748824 -0.10974165 132.57406425 -0.12693596 C137.05655416 -0.14239969 141.53861657 -0.13845601 146.02108955 -0.11963081 C147.66499372 -0.11594333 149.30892953 -0.11905807 150.95280457 -0.1295166 C153.19957905 -0.14271816 155.44493654 -0.13118837 157.69165039 -0.11352539 C159.57619383 -0.11321146 159.57619383 -0.11321146 161.49880886 -0.1128912 C166.4448287 0.61305204 169.59782913 2.80289697 172.7580719 6.62168884 C174.29076904 10.30415989 174.34425528 13.71977177 174.32923889 17.64353943 C174.33770844 18.46219482 174.34617798 19.28085022 174.35490417 20.12431335 C174.37827 22.82684455 174.37929577 25.52880551 174.37806702 28.23143005 C174.38517347 30.12128423 174.39287317 32.01113626 174.40113831 33.90098572 C174.41458554 37.86536138 174.41615285 41.82953797 174.41029358 45.79393005 C174.40442491 50.84300935 174.43486984 55.89111794 174.47541046 60.94001007 C174.50143794 64.8471632 174.5041508 68.75408807 174.5005188 72.66131592 C174.50219884 74.52062399 174.51173243 76.37994389 174.52966309 78.23916626 C174.67104804 94.72438992 172.02868445 106.69363249 160.32728577 119.05955505 C153.29859247 125.69491515 143.67526012 130.47894846 133.96011353 130.5415802 C132.96370346 130.55018066 131.9672934 130.55878113 130.94068909 130.56764221 C129.30976318 130.57403214 129.30976318 130.57403214 127.64588928 130.58055115 C126.49575851 130.58872864 125.34562775 130.59690613 124.16064453 130.60533142 C120.34900937 130.63016943 116.53741152 130.64670096 112.72572327 130.66111755 C111.42171003 130.66644123 110.1176968 130.67176491 108.77416801 130.67724991 C103.28818111 130.69887657 97.80219705 130.71760663 92.31617832 130.7288723 C84.48390972 130.74506689 76.65214068 130.77813652 68.82006031 130.83527315 C63.29795405 130.87416638 57.77598023 130.89352816 52.25374073 130.89879286 C48.96392235 130.90242233 45.67475493 130.91674086 42.38505745 130.9468956 C23.33404782 131.11150726 9.64008901 130.43432178 -4.76255798 116.8056488 C-12.63772685 108.46365292 -16.22896404 98.37158882 -16.26768494 87.13426208 C-16.27425613 86.30450867 -16.28082733 85.47475525 -16.28759766 84.61985779 C-16.30728279 81.87840174 -16.31898107 79.13700028 -16.32896423 76.39549255 C-16.33303976 75.45784939 -16.33711529 74.52020622 -16.34131432 73.55414963 C-16.3621522 68.59355135 -16.37646516 63.63298057 -16.385849 58.67234802 C-16.39692339 53.55211727 -16.4313417 48.4323199 -16.4710207 43.31224251 C-16.49717081 39.37110082 -16.50553929 35.43006283 -16.50913048 31.48884201 C-16.51399866 29.60141439 -16.52561924 27.71399146 -16.54416847 25.82664871 C-16.56853142 23.18404499 -16.56760055 20.54256886 -16.56065369 17.89988708 C-16.57346375 17.12357941 -16.5862738 16.34727173 -16.59947205 15.54743958 C-16.54958311 10.33077206 -15.48846691 7.33961611 -12.09068298 3.38768005 C-8.02274041 0.35134842 -5.02478456 0.00972121 0 0 Z M13.90931702 30.38768005 C13.86334858 38.09250127 13.82353892 45.79684454 13.79945374 53.50169373 C13.78941057 56.12150182 13.7757735 58.74129874 13.75843811 61.36106873 C13.73411616 65.131686 13.72281683 68.90215475 13.71400452 72.6728363 C13.70368195 73.83976517 13.69335938 75.00669403 13.682724 76.20898438 C13.56258666 86.4675296 13.56258666 86.4675296 18.34681702 95.20018005 C24.82395669 100.72944563 30.40813885 100.53701365 38.54554749 100.53294373 C39.51039063 100.53630234 40.47523376 100.53966095 41.46931458 100.54312134 C44.6550577 100.55261091 47.84074815 100.55457343 51.02650452 100.5556488 C53.24461387 100.55886267 55.462723 100.56222684 57.68083191 100.56573486 C62.329427 100.57172107 66.9780035 100.57357527 71.62660217 100.57298279 C77.57722244 100.57288117 83.52772337 100.58653515 89.47831535 100.603755 C94.05943853 100.61488421 98.64053293 100.61690171 103.22166824 100.61637306 C105.41526323 100.61755172 107.60885899 100.62196706 109.80244064 100.62970543 C112.87314418 100.63952415 115.94358962 100.63661978 119.01429749 100.63059998 C120.36737503 100.63902924 120.36737503 100.63902924 121.74778748 100.64762878 C128.21496143 100.61548125 133.64619007 100.34905674 138.72181702 95.95018005 C143.27071809 90.62146737 144.03860512 86.62800602 144.02284241 79.77122498 C144.02276688 78.67046127 144.02269135 77.56969757 144.02261353 76.43557739 C144.01745224 75.25832596 144.01229095 74.08107452 144.00697327 72.8681488 C144.00555832 71.65444107 144.00414337 70.44073334 144.00268555 69.19024658 C143.99709367 65.31853254 143.98454259 61.44687658 143.97181702 57.57518005 C143.96680097 54.94822776 143.96223825 52.32127457 143.95814514 49.69432068 C143.94797834 43.25873348 143.92840114 36.8232717 143.90931702 30.38768005 C127.40931702 30.38768005 110.90931702 30.38768005 93.90931702 30.38768005 C93.57931702 37.31768005 93.24931702 44.24768005 92.90931702 51.38768005 C89.29497439 57.41158444 89.29497439 57.41158444 84.90931702 59.38768005 C81.97181702 59.78611755 81.97181702 59.78611755 78.90931702 59.76268005 C77.89869202 59.77041443 76.88806702 59.7781488 75.84681702 59.78611755 C72.42464133 59.32193947 70.63578142 58.49700556 67.90931702 56.38768005 C64.90931702 51.38768005 64.90931702 51.38768005 63.90931702 30.38768005 C47.40931702 30.38768005 30.90931702 30.38768005 13.90931702 30.38768005 Z " fill="#000000" transform="translate(177.09068298339844,311.61231994628906)"/>
</svg>
